<mxfile host="app.diagrams.net" modified="2021-07-02T08:50:17.831Z" agent="5.0 (Windows NT 10.0; Win64; x64) AppleWebKit/537.36 (KHTML, like Gecko) Chrome/91.0.4472.114 Safari/537.36" etag="LMVfXBoLR0nIPlq843Kq" version="14.8.3" type="github">
  <diagram id="prtHgNgQTEPvFCAcTncT" name="Page-1">
    <mxGraphModel dx="867" dy="594" grid="1" gridSize="10" guides="1" tooltips="1" connect="1" arrows="1" fold="1" page="1" pageScale="1" pageWidth="827" pageHeight="1169" math="0" shadow="0">
      <root>
        <mxCell id="0" />
        <mxCell id="1" parent="0" />
        <mxCell id="X2HARVAKXVF_-nd3x87n-8" style="edgeStyle=orthogonalEdgeStyle;rounded=0;orthogonalLoop=1;jettySize=auto;html=1;exitX=1;exitY=0.5;exitDx=0;exitDy=0;entryX=0;entryY=0.5;entryDx=0;entryDy=0;" edge="1" parent="1" source="X2HARVAKXVF_-nd3x87n-1" target="X2HARVAKXVF_-nd3x87n-6">
          <mxGeometry relative="1" as="geometry" />
        </mxCell>
        <mxCell id="X2HARVAKXVF_-nd3x87n-10" style="edgeStyle=orthogonalEdgeStyle;rounded=0;orthogonalLoop=1;jettySize=auto;html=1;exitX=1;exitY=0.5;exitDx=0;exitDy=0;entryX=0;entryY=0.5;entryDx=0;entryDy=0;" edge="1" parent="1" source="X2HARVAKXVF_-nd3x87n-1" target="X2HARVAKXVF_-nd3x87n-9">
          <mxGeometry relative="1" as="geometry" />
        </mxCell>
        <mxCell id="X2HARVAKXVF_-nd3x87n-22" style="edgeStyle=orthogonalEdgeStyle;rounded=0;orthogonalLoop=1;jettySize=auto;html=1;exitX=1;exitY=0.5;exitDx=0;exitDy=0;entryX=0;entryY=0.5;entryDx=0;entryDy=0;" edge="1" parent="1" source="X2HARVAKXVF_-nd3x87n-1" target="X2HARVAKXVF_-nd3x87n-3">
          <mxGeometry relative="1" as="geometry" />
        </mxCell>
        <mxCell id="X2HARVAKXVF_-nd3x87n-1" value="开始" style="ellipse;whiteSpace=wrap;html=1;" vertex="1" parent="1">
          <mxGeometry x="120" y="320" width="80" height="40" as="geometry" />
        </mxCell>
        <mxCell id="X2HARVAKXVF_-nd3x87n-13" style="edgeStyle=orthogonalEdgeStyle;rounded=0;orthogonalLoop=1;jettySize=auto;html=1;exitX=1;exitY=0.5;exitDx=0;exitDy=0;entryX=0;entryY=0.5;entryDx=0;entryDy=0;" edge="1" parent="1" source="X2HARVAKXVF_-nd3x87n-3" target="X2HARVAKXVF_-nd3x87n-12">
          <mxGeometry relative="1" as="geometry" />
        </mxCell>
        <mxCell id="X2HARVAKXVF_-nd3x87n-3" value="前期物料采购" style="rounded=1;whiteSpace=wrap;html=1;" vertex="1" parent="1">
          <mxGeometry x="240" y="200" width="80" height="40" as="geometry" />
        </mxCell>
        <mxCell id="X2HARVAKXVF_-nd3x87n-20" style="edgeStyle=orthogonalEdgeStyle;rounded=0;orthogonalLoop=1;jettySize=auto;html=1;exitX=1;exitY=0.5;exitDx=0;exitDy=0;entryX=0.5;entryY=1;entryDx=0;entryDy=0;" edge="1" parent="1" source="X2HARVAKXVF_-nd3x87n-6" target="X2HARVAKXVF_-nd3x87n-14">
          <mxGeometry relative="1" as="geometry" />
        </mxCell>
        <mxCell id="X2HARVAKXVF_-nd3x87n-25" style="edgeStyle=orthogonalEdgeStyle;rounded=0;orthogonalLoop=1;jettySize=auto;html=1;exitX=1;exitY=0.5;exitDx=0;exitDy=0;entryX=0.5;entryY=1;entryDx=0;entryDy=0;" edge="1" parent="1" source="X2HARVAKXVF_-nd3x87n-9" target="X2HARVAKXVF_-nd3x87n-23">
          <mxGeometry relative="1" as="geometry" />
        </mxCell>
        <mxCell id="X2HARVAKXVF_-nd3x87n-9" value="尾期物料采购" style="rounded=1;whiteSpace=wrap;html=1;" vertex="1" parent="1">
          <mxGeometry x="240" y="440" width="80" height="40" as="geometry" />
        </mxCell>
        <mxCell id="X2HARVAKXVF_-nd3x87n-16" style="edgeStyle=orthogonalEdgeStyle;rounded=0;orthogonalLoop=1;jettySize=auto;html=1;exitX=1;exitY=0.5;exitDx=0;exitDy=0;entryX=0;entryY=0.5;entryDx=0;entryDy=0;" edge="1" parent="1" source="X2HARVAKXVF_-nd3x87n-12" target="X2HARVAKXVF_-nd3x87n-14">
          <mxGeometry relative="1" as="geometry" />
        </mxCell>
        <mxCell id="X2HARVAKXVF_-nd3x87n-19" style="edgeStyle=orthogonalEdgeStyle;rounded=0;orthogonalLoop=1;jettySize=auto;html=1;exitX=0.5;exitY=0;exitDx=0;exitDy=0;entryX=0;entryY=0.5;entryDx=0;entryDy=0;" edge="1" parent="1" source="X2HARVAKXVF_-nd3x87n-12" target="X2HARVAKXVF_-nd3x87n-15">
          <mxGeometry relative="1" as="geometry" />
        </mxCell>
        <mxCell id="X2HARVAKXVF_-nd3x87n-12" value="裁剪" style="rounded=1;whiteSpace=wrap;html=1;" vertex="1" parent="1">
          <mxGeometry x="360" y="200" width="80" height="40" as="geometry" />
        </mxCell>
        <mxCell id="X2HARVAKXVF_-nd3x87n-24" style="edgeStyle=orthogonalEdgeStyle;rounded=0;orthogonalLoop=1;jettySize=auto;html=1;exitX=1;exitY=0.5;exitDx=0;exitDy=0;entryX=0;entryY=0.5;entryDx=0;entryDy=0;" edge="1" parent="1" source="X2HARVAKXVF_-nd3x87n-14" target="X2HARVAKXVF_-nd3x87n-23">
          <mxGeometry relative="1" as="geometry" />
        </mxCell>
        <mxCell id="X2HARVAKXVF_-nd3x87n-14" value="车缝" style="rounded=1;whiteSpace=wrap;html=1;" vertex="1" parent="1">
          <mxGeometry x="520" y="200" width="80" height="40" as="geometry" />
        </mxCell>
        <mxCell id="X2HARVAKXVF_-nd3x87n-18" style="edgeStyle=orthogonalEdgeStyle;rounded=0;orthogonalLoop=1;jettySize=auto;html=1;exitX=1;exitY=0.5;exitDx=0;exitDy=0;entryX=0.5;entryY=0;entryDx=0;entryDy=0;" edge="1" parent="1" source="X2HARVAKXVF_-nd3x87n-15" target="X2HARVAKXVF_-nd3x87n-14">
          <mxGeometry relative="1" as="geometry" />
        </mxCell>
        <mxCell id="X2HARVAKXVF_-nd3x87n-15" value="裁剪" style="rounded=1;whiteSpace=wrap;html=1;" vertex="1" parent="1">
          <mxGeometry x="440" y="120" width="80" height="40" as="geometry" />
        </mxCell>
        <mxCell id="X2HARVAKXVF_-nd3x87n-6" value="中期物料采购" style="rounded=1;whiteSpace=wrap;html=1;" vertex="1" parent="1">
          <mxGeometry x="240" y="320" width="80" height="40" as="geometry" />
        </mxCell>
        <mxCell id="X2HARVAKXVF_-nd3x87n-28" style="edgeStyle=orthogonalEdgeStyle;rounded=0;orthogonalLoop=1;jettySize=auto;html=1;exitX=1;exitY=0.5;exitDx=0;exitDy=0;entryX=0;entryY=0.5;entryDx=0;entryDy=0;" edge="1" parent="1" source="X2HARVAKXVF_-nd3x87n-23" target="X2HARVAKXVF_-nd3x87n-26">
          <mxGeometry relative="1" as="geometry" />
        </mxCell>
        <mxCell id="X2HARVAKXVF_-nd3x87n-23" value="后整" style="rounded=1;whiteSpace=wrap;html=1;" vertex="1" parent="1">
          <mxGeometry x="640" y="200" width="80" height="40" as="geometry" />
        </mxCell>
        <mxCell id="X2HARVAKXVF_-nd3x87n-29" style="edgeStyle=orthogonalEdgeStyle;rounded=0;orthogonalLoop=1;jettySize=auto;html=1;exitX=1;exitY=0.5;exitDx=0;exitDy=0;entryX=0;entryY=0.5;entryDx=0;entryDy=0;" edge="1" parent="1" source="X2HARVAKXVF_-nd3x87n-26" target="X2HARVAKXVF_-nd3x87n-27">
          <mxGeometry relative="1" as="geometry" />
        </mxCell>
        <mxCell id="X2HARVAKXVF_-nd3x87n-26" value="入库" style="rounded=1;whiteSpace=wrap;html=1;" vertex="1" parent="1">
          <mxGeometry x="760" y="200" width="80" height="40" as="geometry" />
        </mxCell>
        <mxCell id="X2HARVAKXVF_-nd3x87n-27" value="出货" style="rounded=1;whiteSpace=wrap;html=1;" vertex="1" parent="1">
          <mxGeometry x="880" y="200" width="80" height="40" as="geometry" />
        </mxCell>
      </root>
    </mxGraphModel>
  </diagram>
</mxfile>
